<svg xmlns="http://www.w3.org/2000/svg" width="24" height="23" viewBox="0 0 24 23">
    <path fill="#3483FA" d="M22.061 2.093C20.805.75 19.141.016 17.365.016c-1.775 0-3.444.74-4.701 2.083l-.656.7-.667-.711C10.084.745 8.411 0 6.635 0c-1.77 0-3.44.74-4.691 2.077C.687 3.42-.005 5.203 0 7.1c0 1.898.697 3.675 1.954 5.018l9.555 10.21c.132.141.31.217.483.217s.351-.07.484-.212L22.05 12.14C23.308 10.797 24 9.014 24 7.116c.005-1.897-.682-3.68-1.939-5.023zm-.976 9.008l-9.093 9.678-9.071-9.694C1.923 10.02 1.374 8.606 1.374 7.1c0-1.506.544-2.92 1.541-3.98.993-1.06 2.315-1.647 3.72-1.647 1.41 0 2.737.587 3.734 1.653l1.15 1.229c.27.288.702.288.972 0l1.14-1.218c.997-1.066 2.325-1.653 3.73-1.653 1.403 0 2.726.587 3.724 1.647.997 1.066 1.541 2.48 1.541 3.985.005 1.506-.544 2.92-1.541 3.985z"/>
</svg>
