<svg xmlns="http://www.w3.org/2000/svg" width="60" height="52" viewBox="0 0 60 52">
    <g fill="#FFF">
        <path d="M59.18 37.135c-.41-1.498-1.66-2.612-3.19-2.843V11.774h1.954c.54 0 .977-.44.977-.982V.982c0-.543-.437-.982-.977-.982h-42.98c-.539 0-.976.439-.976.981v9.811c0 .542.437.982.977.982h1.953v19.622h-.977c-2.424-.006-4.799.692-6.837 2.01v-4.953c0-.542-.438-.981-.977-.981H1.289c-.54 0-.976.439-.976.98V51.02c0 .542.437.981.976.981h6.838c.54 0 .977-.44.977-.981v-4.953c2.039 1.317 4.413 2.015 6.837 2.01h16.04c1.11-.002 2.217-.149 3.29-.436l21.15-5.69c2.08-.57 3.313-2.72 2.759-4.815zM15.94 1.962h41.026v7.85H15.941v-7.85zm2.93 9.812h35.166V34.46L42.7 37.514c-.467-1.118-1.42-1.958-2.584-2.278L26.955 31.69c-.741-.196-1.505-.295-2.271-.294h-5.812V11.774zM7.152 50.038H2.265V29.434H7.15v20.604zm48.762-9.985l-21.145 5.69c-.91.245-1.846.369-2.788.37H15.941c-2.325.005-4.59-.752-6.447-2.158l-.39-.295v-7.849l.39-.294c1.858-1.406 4.122-2.165 6.447-2.159h8.743c.597 0 1.191.078 1.769.23l13.157 3.544c.778.215 1.347.884 1.436 1.69.01.04.023.08.039.118-.012.042-.02.085-.026.129 0 .159-.02.318-.065.471-.23.856-1 1.45-1.883 1.451-.172.002-.342-.02-.508-.064L30.3 38.69c-.34-.102-.71-.01-.963.24-.254.25-.352.618-.257.962.095.344.368.61.714.692l8.302 2.237c.332.088.674.132 1.017.132 1.757-.001 3.296-1.181 3.76-2.883.054-.197.09-.398.11-.601l11.909-3.207c.084-.022.176-.044.263-.058.973-.126 1.887.491 2.138 1.443.044.165.066.336.065.508.001.888-.591 1.666-1.445 1.897z"/>
        <path stroke="#979797" d="M32.23 18h9.166c.506 0 .916-.448.916-1 0-.553-.41-1-.916-1h-9.167c-.506 0-.916.447-.916 1 0 .552.41 1 .916 1z"/>
    </g>
</svg>
