<svg xmlns="http://www.w3.org/2000/svg" width="60" height="50" viewBox="0 0 60 50">
    <g fill="#FFF">
        <path d="M57 40V5c-.003-2.76-2.24-4.997-5-5H8C5.24.003 3.003 2.24 3 5v35H0v5c.003 2.76 2.24 4.997 5 5h50c2.76-.003 4.997-2.24 5-5v-5h-3zM5 5c0-1.657 1.343-3 3-3h44c1.657 0 3 1.343 3 3v35H5V5zm29.83 37c-.426 1.198-1.559 1.999-2.83 2h-4c-1.271-.001-2.404-.802-2.83-2h9.66zM58 45c0 1.657-1.343 3-3 3H5c-1.657 0-3-1.343-3-3v-3h21.1c.479 2.327 2.525 3.997 4.9 4h4c2.375-.003 4.421-1.673 4.9-4H58v3z"/>
        <path d="M53.115 3.922H6.885v33.333h46.23V3.922zm-2.01 31.372H8.895V5.882h42.21v29.412z"/>
        <path d="M11.075 21.445l2.116 8.174c.563 2.184 2.598 3.717 4.931 3.714h11.953c2.333 0 4.366-1.531 4.931-3.714l2.114-8.172c.5-.127.957-.381 1.321-.735.583-.547.91-1.3.903-2.085 0-1.624-1.365-2.94-3.05-2.94h-9.147v-4.903c0-1.624-1.365-2.94-3.049-2.94s-3.049 1.316-3.049 2.94v4.902h-9.147c-1.68.01-3.04 1.321-3.05 2.941.007 1.313.914 2.462 2.223 2.818zm21.96 7.698c-.34 1.31-1.56 2.23-2.96 2.23H18.122c-1.4 0-2.62-.92-2.959-2.229l-1.96-7.575h8.03c.423 1.174 1.571 1.961 2.861 1.961 1.29 0 2.438-.787 2.862-1.961h8.03l-1.952 7.574zm3.26-11.496c.561 0 1.016.439 1.016.98 0 .265-.112.517-.31.698-.186.183-.441.285-.706.283h-9.148v-1.96h9.148zm-13.213-6.863c0-.541.455-.98 1.016-.98.562 0 1.017.439 1.017.98v9.804c0 .542-.455.98-1.017.98-.561 0-1.016-.438-1.016-.98v-9.804zM11.196 17.93c.186-.182.44-.284.706-.282h9.147v1.96h-9.147c-.562 0-1.017-.438-1.017-.98 0-.264.112-.516.311-.698z"/>
        <path d="M24.59 25.49c-.543 0-.983.44-.983.98v3.922c0 .542.44.98.983.98.543 0 .984-.438.984-.98v-3.921c0-.542-.44-.98-.984-.98zM29.271 31.343c.078.02.158.03.239.03.45 0 .843-.307.953-.743l.984-3.926c.128-.525-.192-1.053-.717-1.184-.525-.131-1.057.184-1.192.706l-.984 3.926c-.063.253-.023.52.111.744.135.224.353.384.606.447zM19.642 26.226c-.136-.522-.668-.837-1.192-.706-.525.13-.844.66-.717 1.184l.983 3.926c.11.436.504.743.955.743.08 0 .16-.01.24-.03.526-.131.847-.664.715-1.19l-.984-3.927zM38.361 9.804L40.328 9.804 40.328 11.765 38.361 11.765zM43.279 9.804L49.18 9.804 49.18 11.765 43.279 11.765zM38.361 12.745L40.328 12.745 40.328 14.706 38.361 14.706zM38.361 24.51L40.328 24.51 40.328 26.471 38.361 26.471zM38.361 27.451L40.328 27.451 40.328 29.412 38.361 29.412zM38.361 29.412L40.328 29.412 40.328 31.373 38.361 31.373zM43.279 12.745L49.18 12.745 49.18 14.706 43.279 14.706zM43.279 16.667L49.18 16.667 49.18 18.627 43.279 18.627zM43.279 20.588L49.18 20.588 49.18 22.549 43.279 22.549zM43.279 29.412L49.18 29.412 49.18 31.373 43.279 31.373zM43.279 24.51L49.18 24.51 49.18 26.471 43.279 26.471zM43.279 27.451L49.18 27.451 49.18 29.412 43.279 29.412z"/>
    </g>
</svg>
