<svg xmlns="http://www.w3.org/2000/svg" width="16" height="17" viewBox="0 0 16 17">
    <path fill="none" stroke="#FFF" d="M14.526 15.467l-4.14-4.565c.86-1.052 1.388-2.44 1.388-3.965C11.774 3.664 9.357 1 6.387 1 3.417 1 1 3.664 1 6.938c0 3.273 2.417 5.937 5.387 5.937 1.383 0 2.642-.583 3.597-1.53l4.141 4.563c.056.061.128.092.2.092.073 0 .146-.03.201-.092.111-.122.111-.32 0-.441zM6.387 12.25c-2.657 0-4.82-2.383-4.82-5.312 0-2.93 2.163-5.313 4.82-5.313 2.658 0 4.82 2.383 4.82 5.313 0 2.929-2.162 5.312-4.82 5.312z"/>
</svg>
